<?xml version="1.0" encoding="UTF-8"?>
<svg id="logosandtypes_com" data-name="logosandtypes com" xmlns="http://www.w3.org/2000/svg" viewBox="0 0 150 150">
  <defs>
    <style>
      .cls-1 {
        fill: none;
      }

      .cls-2 {
        fill: #f27264;
      }

      .cls-2, .cls-3, .cls-4 {
        fill-rule: evenodd;
      }

      .cls-3 {
        fill: #73cbf2;
      }

      .cls-4 {
        fill: #fd0;
      }
    </style>
  </defs>
  <path class="cls-1" d="M0,0H150V150H0V0Z"/>
  <g>
    <path class="cls-4" d="M95.04,28.28L46.56,98.12,4.39,38.59s-3.84-5.51,0-11.75c3.63-5.89,9.77-8.94,19.93-4.72,0,0,26.34,10.66,70.73,6.17h0Z"/>
    <path class="cls-3" d="M135.33,20.21c3.08,0,9.18,1.92,10.97,6.6,0,0,3.11,5.69-.84,11.75l-59.09,86.42s-3.54,5.69-10.23,6.3c0,0-6.49,.71-10.87-7.13l-19.06-26.52L95.02,28.28s21.1-2.89,35.22-7.16c0,0,3.39-1.04,5.09-.91h0Z"/>
    <path class="cls-2" d="M75.7,131.27H31.29c-1.58-.08-2.83-.89-2.83-.89-2.88-2.84-.94-5.89-.94-5.89l18.66-26.85,22.57,30.35s2.14,3.17,6.95,3.27h0Z"/>
  </g>
</svg>